<?xml version="1.0" standalone="no"?>
<!DOCTYPE svg PUBLIC "-//W3C//DTD SVG 20010904//EN"
 "http://www.w3.org/TR/2001/REC-SVG-20010904/DTD/svg10.dtd">
<svg version="1.0" xmlns="http://www.w3.org/2000/svg"
 width="528.000000pt" height="586.000000pt" viewBox="0 0 528.000000 586.000000"
 preserveAspectRatio="xMidYMid meet">

<g transform="translate(0.000000,586.000000) scale(0.100000,-0.100000)"
fill="#000000" stroke="none">
<path d="M2659 5712 c-114 -90 -203 -220 -228 -332 -5 -23 -13 -46 -18 -51
-16 -16 -107 19 -152 57 -49 42 -51 41 -76 -40 -18 -61 -19 -188 -1 -279 12
-62 12 -67 -3 -61 -52 21 -111 34 -162 34 l-58 0 -7 -36 c-6 -31 -2 -125 8
-188 2 -15 -16 -26 -104 -61 -758 -300 -1267 -916 -1408 -1704 -105 -590 16
-1231 325 -1731 358 -578 900 -930 1595 -1037 163 -25 559 -25 720 0 446 70
816 230 1125 489 894 748 1101 2161 458 3133 -181 274 -396 482 -679 657 -149
92 -380 200 -513 239 -23 7 -45 18 -48 24 -2 7 5 45 16 85 25 90 36 190 22
210 -8 12 -15 12 -48 -4 -41 -20 -141 -56 -155 -56 -4 0 -8 30 -8 68 0 73 -28
189 -62 256 -11 22 -22 43 -24 45 -2 2 -21 -12 -42 -31 -38 -34 -159 -84 -183
-76 -6 2 -26 47 -44 100 -33 97 -120 283 -154 326 l-17 24 -75 -60z m65 -160
c8 -62 44 -134 100 -200 62 -72 80 -125 74 -212 -3 -38 -3 -70 0 -70 17 0 75
57 91 89 26 49 95 111 125 111 22 0 25 -6 35 -63 22 -125 11 -288 -25 -380 -8
-21 122 52 190 105 l39 31 -5 -49 c-6 -64 -28 -108 -89 -180 -27 -32 -59 -78
-70 -101 l-21 -43 -482 0 -483 0 -30 43 c-40 55 -61 107 -68 165 -9 70 1 78
72 63 32 -7 73 -20 92 -27 19 -8 36 -13 37 -11 2 2 -1 18 -6 36 -17 61 -31
186 -24 229 3 23 15 54 26 68 l20 25 33 -48 c18 -26 46 -60 61 -75 31 -29 81
-52 88 -40 2 4 0 45 -4 91 -13 120 8 268 47 344 30 59 125 147 159 147 6 0 14
-22 18 -48z m764 -1096 c463 -179 819 -503 1033 -939 241 -493 272 -1068 87
-1605 -227 -661 -755 -1140 -1408 -1277 -215 -45 -518 -60 -731 -35 -392 46
-761 208 -1045 459 -473 417 -735 1100 -674 1756 69 731 489 1321 1147 1609
113 50 240 93 249 84 3 -3 -2 -20 -10 -37 -21 -40 -20 -59 4 -104 19 -34 19
-40 5 -60 -17 -25 -20 -89 -5 -118 9 -16 7 -21 -15 -29 -14 -5 -28 -16 -31
-24 -8 -20 27 -83 75 -138 23 -25 41 -48 41 -51 0 -3 -9 -7 -19 -10 -26 -7
-75 25 -97 62 -12 20 -24 29 -33 26 -8 -3 -68 -37 -132 -75 l-118 -70 14 -41
c28 -80 22 -98 -55 -162 -39 -32 -98 -91 -132 -132 -70 -84 -83 -88 -156 -55
l-42 19 -14 -22 c-8 -12 -41 -71 -75 -130 l-62 -108 45 -44 c26 -24 46 -51 46
-59 0 -8 -13 -55 -30 -104 -16 -48 -37 -130 -47 -181 -19 -103 -29 -114 -112
-127 l-41 -7 0 -147 0 -148 38 -7 c21 -3 52 -14 69 -24 26 -17 31 -28 47 -107
9 -49 30 -129 47 -178 16 -49 27 -97 24 -107 -3 -9 -24 -34 -45 -53 -22 -20
-40 -39 -40 -42 0 -6 113 -203 138 -241 6 -9 17 -9 47 2 77 27 94 22 157 -54
31 -38 90 -97 132 -132 41 -35 78 -75 82 -88 4 -15 -1 -42 -14 -74 -12 -28
-21 -51 -19 -52 1 -1 59 -33 128 -72 l127 -72 46 45 c26 24 53 44 61 44 7 0
53 -13 102 -29 48 -16 126 -37 173 -46 103 -20 121 -36 128 -104 l5 -51 153 0
154 0 0 28 c0 15 9 45 19 67 l18 41 94 17 c52 10 136 32 187 49 107 36 125 33
169 -30 l28 -38 128 75 c110 65 127 79 122 96 -18 57 -26 106 -18 118 4 8 40
41 79 75 38 33 97 92 129 131 66 79 80 84 152 51 l42 -19 74 131 74 131 -39
35 c-21 19 -41 45 -44 57 -3 13 8 62 25 114 17 50 38 132 47 182 19 103 32
118 109 127 l45 5 0 147 0 147 -58 16 c-33 9 -64 22 -70 30 -7 8 -19 50 -27
95 -9 45 -31 127 -50 184 -34 101 -35 103 -17 128 11 14 33 34 50 46 l31 21
-77 130 -77 130 -35 -13 c-19 -7 -51 -13 -70 -13 -32 -1 -42 6 -93 67 -31 38
-91 97 -132 133 -82 70 -89 87 -60 156 8 19 15 39 15 43 0 5 -57 40 -126 79
l-127 71 -48 -45 c-48 -45 -62 -51 -93 -39 -23 9 -20 21 20 75 43 59 55 116
29 135 -16 12 -17 18 -7 52 17 56 15 90 -7 109 -19 16 -19 17 4 47 31 42 39
86 21 111 -40 52 -13 49 162 -19z m-260 32 c17 -17 15 -43 -8 -88 l-20 -40
-474 0 -474 0 -26 31 c-32 38 -33 73 -4 93 20 14 85 16 508 16 365 0 489 -3
498 -12z m-34 -219 c31 -25 34 -61 6 -89 -19 -19 -33 -20 -477 -20 -411 0
-458 2 -475 17 -27 24 -23 68 8 92 26 21 37 21 469 21 432 0 443 0 469 -21z
m-694 -409 c3 -67 9 -115 15 -115 6 0 12 48 15 115 l5 115 66 3 66 3 6 -113
c4 -62 7 -138 7 -169 l0 -57 -79 -11 c-44 -7 -111 -21 -150 -31 -39 -11 -75
-20 -80 -20 -12 0 -35 246 -28 306 7 67 41 96 106 92 l46 -3 5 -115z m430 11
c0 -84 3 -111 15 -121 21 -17 24 -4 27 120 l3 105 57 3 c104 5 119 -37 94
-251 -9 -78 -18 -143 -20 -144 -2 -2 -36 5 -75 16 -40 11 -108 25 -152 32
l-79 11 0 169 0 169 65 0 65 0 0 -109z m445 -208 c240 -145 428 -363 529 -615
233 -582 5 -1240 -539 -1555 -109 -63 -270 -125 -362 -139 l-46 -7 6 29 c3 16
9 69 13 117 4 48 12 91 18 96 6 5 31 14 56 21 25 6 82 29 126 50 281 131 490
382 570 685 23 87 27 121 28 255 0 132 -3 168 -23 244 -69 265 -222 482 -440
625 -51 33 -98 61 -103 61 -10 0 -9 17 9 162 l5 46 46 -19 c25 -11 73 -36 107
-56z m-1107 -33 c9 -60 10 -96 4 -98 -6 -2 -52 -31 -103 -64 -429 -283 -587
-840 -369 -1305 52 -110 101 -184 185 -272 123 -130 255 -216 419 -272 93 -33
88 -25 101 -180 l7 -92 -39 6 c-115 19 -303 98 -429 182 -276 184 -466 470
-540 810 -24 110 -24 360 0 470 83 384 309 690 646 874 41 23 82 40 90 38 11
-1 18 -28 28 -97z m691 -111 c91 -21 240 -87 316 -139 202 -139 348 -367 396
-617 17 -94 6 -319 -20 -413 -90 -314 -334 -558 -656 -656 -83 -25 -104 -28
-255 -28 -151 0 -173 3 -253 27 -363 111 -619 398 -677 761 -18 106 -8 300 20
395 78 273 260 488 511 605 205 95 401 116 618 65z m-281 -2076 l3 -123 -25 0
c-21 0 -26 6 -30 33 -7 42 -26 197 -26 209 0 5 17 8 38 6 l37 -3 3 -122z m207
100 c-3 -16 -9 -68 -15 -117 -10 -94 -17 -106 -62 -106 l-28 0 0 119 c0 132
-1 129 67 130 41 1 42 0 38 -26z m-345 -1119 c0 -114 -2 -125 -17 -122 -15 3
-18 17 -21 96 -2 73 -6 92 -17 92 -8 0 -15 7 -15 15 0 8 6 15 14 15 7 0 19 7
26 15 7 8 16 15 21 15 5 0 9 -57 9 -126z m160 99 c19 -25 21 -38 18 -106 -3
-68 -6 -82 -27 -98 -13 -10 -32 -19 -42 -19 -23 0 -59 34 -59 55 0 8 9 15 20
15 11 0 20 -7 20 -15 0 -8 9 -15 20 -15 15 0 20 7 20 29 0 25 -3 28 -27 23
-35 -7 -53 19 -53 77 0 79 65 111 110 54z m142 10 c20 -18 25 -78 7 -89 -8 -4
-8 -9 0 -17 6 -6 11 -30 11 -53 0 -33 -5 -47 -22 -58 -30 -21 -47 -20 -75 6
-29 27 -30 58 -3 58 13 0 20 -7 20 -20 0 -13 7 -20 20 -20 16 0 20 7 20 34 0
25 -5 35 -20 39 -11 3 -20 12 -20 21 0 9 8 16 20 16 15 0 20 7 20 28 0 16 -3
31 -6 35 -10 9 -34 -4 -34 -19 0 -8 -9 -14 -20 -14 -24 0 -26 18 -4 48 18 26
60 29 86 5z m155 -5 c26 -25 29 -46 9 -73 -11 -16 -11 -22 3 -46 20 -35 7 -77
-32 -99 -24 -13 -30 -13 -54 0 -22 12 -29 24 -31 54 -2 20 2 44 9 52 9 11 9
18 1 26 -17 17 -15 69 5 90 22 24 62 23 90 -4z"/>
<path d="M3626 4225 c-25 -47 -46 -96 -46 -109 0 -35 45 -68 89 -64 33 3 39 9
83 88 26 47 48 88 48 92 0 4 -9 12 -19 18 -18 9 -25 1 -66 -75 -34 -61 -52
-85 -66 -85 -28 0 -24 25 21 106 46 84 47 90 21 104 -17 9 -24 0 -65 -75z"/>
<path d="M1680 4230 c-12 -7 -9 -16 18 -55 17 -25 32 -48 32 -50 0 -3 -24 11
-54 31 -54 36 -55 36 -79 17 l-25 -18 56 -80 c80 -115 81 -116 102 -102 17 10
16 15 -25 74 -25 35 -42 63 -39 63 3 0 34 -20 69 -45 61 -44 63 -45 83 -28 21
18 21 18 -44 111 -36 50 -68 92 -72 92 -4 0 -14 -5 -22 -10z"/>
<path d="M3783 4098 c-53 -69 -69 -96 -61 -105 18 -22 32 -14 73 42 22 29 42
52 43 50 2 -2 -7 -35 -19 -74 -21 -65 -22 -73 -7 -87 9 -9 21 -13 27 -10 6 4
40 45 77 92 54 70 64 87 54 99 -18 22 -23 19 -60 -30 -18 -25 -35 -43 -37 -42
-2 2 6 29 16 59 l19 56 -22 21 c-12 12 -24 21 -27 21 -2 0 -37 -42 -76 -92z"/>
<path d="M1450 4126 c-14 -18 -10 -59 6 -48 14 9 27 62 15 62 -5 0 -14 -7 -21
-14z"/>
<path d="M1471 4075 c-46 -39 -42 -70 20 -144 43 -52 56 -61 83 -61 38 0 86
44 86 78 0 12 -24 50 -53 84 -62 74 -89 82 -136 43z m99 -79 c41 -49 48 -70
30 -81 -14 -9 -34 9 -82 69 -30 38 -36 51 -27 62 15 18 31 8 79 -50z"/>
<path d="M3941 3976 c-39 -46 -71 -88 -71 -94 0 -6 9 -16 19 -21 15 -8 22 -6
32 9 8 10 40 51 73 89 48 59 56 74 46 86 -7 8 -16 15 -21 15 -4 0 -40 -38 -78
-84z"/>
<path d="M4018 3898 l-67 -102 21 -23 c12 -13 26 -23 32 -23 6 0 55 28 109 63
90 58 96 64 81 79 -18 18 -15 19 -154 -71 -19 -12 -12 2 28 61 46 66 52 80 42
97 -6 12 -14 21 -18 21 -4 0 -37 -46 -74 -102z"/>
<path d="M1350 3964 c-12 -13 -2 -26 66 -95 43 -43 84 -79 90 -79 6 0 18 7 25
16 11 14 2 26 -68 95 -44 43 -85 79 -90 79 -6 0 -16 -7 -23 -16z"/>
<path d="M1265 3865 c-43 -42 -34 -75 38 -139 37 -34 71 -56 85 -56 31 0 82
52 82 82 0 33 -42 72 -58 56 -16 -16 -15 -33 2 -48 18 -14 10 -40 -13 -40 -9
1 -41 23 -71 50 -52 46 -54 50 -38 66 14 15 20 15 33 4 13 -11 19 -11 32 3 13
13 14 19 3 31 -19 24 -67 20 -95 -9z"/>
<path d="M4148 3769 c-49 -39 -88 -74 -88 -78 0 -12 72 -101 81 -101 19 0 19
23 -2 51 l-22 31 21 21 22 21 25 -24 c34 -32 55 -14 29 25 -17 27 -17 27 6 45
24 18 25 18 52 -13 20 -25 29 -29 38 -20 10 9 4 23 -26 62 -22 28 -41 50 -44
50 -3 0 -44 -32 -92 -70z"/>
<path d="M1166 3741 c-15 -17 -12 -21 64 -75 44 -32 80 -64 80 -72 0 -33 -33
-24 -107 30 -58 42 -80 53 -90 44 -7 -6 -13 -16 -13 -22 0 -17 154 -126 178
-126 28 0 72 55 72 90 0 27 -22 48 -136 128 -30 21 -32 21 -48 3z"/>
<path d="M4243 3619 c-84 -55 -91 -62 -80 -80 15 -24 25 -24 57 1 30 24 46 25
54 4 8 -22 10 -20 -29 -44 -39 -24 -41 -28 -22 -53 11 -16 15 -15 50 8 22 15
37 34 37 46 0 15 5 18 23 14 29 -8 77 28 77 57 0 28 -47 108 -63 107 -7 0 -53
-27 -104 -60z m121 -15 c13 -34 -35 -59 -62 -32 -10 10 -8 16 10 30 29 22 44
23 52 2z"/>
<path d="M1034 3535 c-30 -54 -34 -69 -23 -76 10 -6 19 -2 30 13 16 20 16 20
102 -30 84 -50 87 -51 98 -31 13 25 15 24 -79 80 -48 29 -76 51 -73 60 18 68
-13 59 -55 -16z"/>
<path d="M4401 3473 c-12 -10 -27 -40 -34 -67 -13 -54 -41 -81 -57 -56 -6 10
-4 20 6 31 16 17 9 49 -10 49 -39 0 -48 -71 -15 -114 37 -47 92 -29 109 37 16
63 28 87 44 87 18 0 29 -29 16 -45 -13 -16 -3 -45 16 -45 20 0 37 38 29 68 -8
34 -43 72 -66 72 -9 0 -26 -8 -38 -17z"/>
<path d="M971 3408 c-10 -27 -14 -24 114 -83 l93 -43 10 23 c12 26 15 24 -156
101 l-53 24 -8 -22z"/>
<path d="M941 3327 c-5 -12 -18 -46 -30 -74 -20 -52 -20 -53 -2 -53 11 0 23 9
26 21 4 11 12 18 18 16 154 -63 179 -70 188 -56 17 27 8 34 -82 69 -86 33 -90
36 -85 62 7 34 -21 47 -33 15z"/>
<path d="M4418 3288 c-54 -22 -98 -43 -98 -47 0 -4 6 -14 13 -23 11 -15 19
-14 85 13 145 58 141 56 135 78 -7 28 -22 26 -135 -21z"/>
<path d="M4545 3222 c6 -28 5 -29 -90 -61 -52 -18 -93 -36 -91 -40 1 -3 6 -14
9 -23 5 -16 14 -14 93 12 99 34 114 36 114 16 0 -19 19 -31 31 -19 5 5 0 36
-13 76 -17 51 -27 67 -41 67 -15 0 -17 -5 -12 -28z"/>
<path d="M885 3135 c-32 -31 -35 -99 -6 -115 32 -16 55 -12 104 21 49 32 81
33 75 2 -2 -10 -13 -19 -25 -21 -28 -4 -37 -39 -12 -47 25 -8 58 11 69 41 36
93 -33 136 -118 73 -43 -31 -77 -35 -77 -9 0 8 10 19 22 25 26 11 36 42 16 49
-21 9 -22 8 -48 -19z"/>
<path d="M4390 3033 c0 -16 16 -31 35 -34 29 -6 37 -50 12 -71 -16 -12 -19
-21 -11 -36 9 -20 12 -19 114 28 68 32 105 55 104 65 -3 59 7 55 -129 55 -69
0 -125 -3 -125 -7z m157 -54 c-41 -22 -67 -19 -67 6 0 12 12 15 53 15 l52 -1
-38 -20z"/>
<path d="M830 2941 c0 -20 25 -31 72 -31 48 0 39 -18 -12 -25 -57 -8 -83 -27
-78 -59 3 -19 15 -22 116 -37 62 -8 115 -13 117 -11 3 3 5 13 5 23 0 14 -11
19 -47 24 -27 4 -61 10 -78 14 -27 7 -22 9 42 21 83 15 88 17 97 47 8 24 14
22 -124 43 -95 14 -110 13 -110 -9z"/>
<path d="M4520 2853 c-78 -6 -92 -11 -88 -36 3 -19 8 -21 51 -18 46 2 48 1 45
-21 -2 -19 -11 -24 -43 -28 -35 -4 -40 -8 -43 -34 -3 -23 0 -28 13 -22 9 3 29
6 45 6 16 0 35 7 44 15 9 9 17 11 21 5 9 -14 78 -13 93 2 7 7 12 39 12 75 l0
63 -52 -2 c-29 -1 -73 -3 -98 -5z m118 -65 c-2 -18 -10 -23 -33 -23 -23 0 -31
5 -33 23 -3 19 1 22 33 22 32 0 36 -3 33 -22z"/>
<path d="M805 2740 c-4 -12 -5 -23 -3 -25 3 -4 196 -25 224 -25 8 0 14 10 14
24 0 23 -4 25 -67 31 -38 3 -89 8 -115 11 -41 5 -47 3 -53 -16z"/>
<path d="M4473 2663 c-18 -2 -33 -10 -33 -16 1 -30 16 -34 128 -29 110 4 112
5 112 28 0 24 -2 24 -87 22 -49 0 -103 -3 -120 -5z"/>
<path d="M4447 2564 c-3 -17 2 -24 20 -29 17 -4 23 -11 19 -21 -3 -9 -6 -21
-6 -29 0 -7 -9 -15 -20 -18 -13 -3 -20 -14 -20 -29 l0 -25 118 18 c64 10 118
18 120 18 2 1 2 17 0 37 l-3 37 -112 32 -111 32 -5 -23z m135 -60 c39 -9 25
-24 -23 -24 -33 0 -39 3 -39 21 0 15 5 19 18 15 9 -3 29 -8 44 -12z"/>
<path d="M926 2223 c3 -16 23 -80 44 -144 105 -319 338 -654 598 -857 l42 -34
-1 44 c0 40 -4 46 -61 93 -33 28 -101 95 -150 150 -169 188 -294 405 -370 642
l-43 133 -33 0 c-30 0 -32 -2 -26 -27z"/>
<path d="M4495 2238 c-2 -7 -21 -62 -40 -123 -116 -351 -366 -694 -652 -894
-47 -32 -52 -40 -53 -73 0 -21 3 -38 7 -38 3 0 49 32 100 71 313 234 538 547
658 914 25 74 45 140 45 145 0 15 -60 12 -65 -2z"/>
<path d="M1803 1157 c-6 -6 -34 -52 -62 -100 -51 -84 -52 -89 -35 -102 20 -15
30 -8 60 41 10 16 15 17 33 7 33 -21 68 -15 90 13 44 56 34 91 -37 131 -31 17
-42 20 -49 10z m56 -61 c10 -12 9 -20 -4 -40 -19 -28 -23 -30 -43 -17 -12 7
-11 14 2 40 18 34 28 38 45 17z"/>
<path d="M3575 1111 c-35 -10 -53 -25 -69 -56 -10 -20 -16 -24 -16 -12 0 18
-8 21 -33 12 -12 -5 -11 -17 4 -83 11 -42 18 -81 16 -86 -2 -5 -24 21 -51 57
-47 67 -59 75 -85 58 -11 -7 2 -30 58 -105 39 -53 73 -96 76 -96 11 0 65 30
65 36 0 3 -9 42 -20 86 -12 44 -20 84 -18 90 2 5 21 -21 42 -57 46 -79 63 -91
108 -72 71 30 76 59 23 150 -44 74 -62 88 -100 78z m52 -98 c42 -66 46 -87 18
-91 -16 -2 -29 12 -58 62 -21 36 -36 70 -32 76 14 22 37 7 72 -47z"/>
<path d="M1895 983 c-60 -74 -75 -97 -64 -104 21 -13 37 -11 47 7 7 13 13 13
36 3 21 -10 26 -18 22 -35 -5 -17 0 -26 15 -34 11 -7 22 -10 24 -8 1 2 15 48
29 103 15 55 29 107 32 116 3 10 -7 21 -30 31 l-34 17 -77 -96z m72 -21 c-7
-24 -16 -43 -20 -43 -4 1 -11 1 -17 1 -5 0 -10 5 -10 11 0 12 51 81 56 76 2
-1 -3 -22 -9 -45z"/>
<path d="M2072 998 c-19 -19 -14 -65 12 -115 14 -25 22 -52 19 -60 -8 -22 -36
-11 -43 17 -4 16 -14 26 -28 28 -18 3 -22 -1 -22 -26 0 -40 31 -65 82 -66 37
-1 44 3 56 27 12 26 11 33 -13 82 -16 30 -25 61 -21 70 8 22 42 15 38 -8 -2
-11 7 -21 22 -27 25 -9 25 -9 11 -57 -19 -62 -19 -107 0 -123 8 -7 34 -15 58
-17 47 -6 65 7 69 48 4 32 -37 41 -45 10 -7 -30 -47 -28 -47 2 0 29 27 116 41
133 16 20 42 5 36 -22 -3 -17 1 -25 16 -30 29 -9 49 32 29 62 -20 31 -106 46
-129 23 -7 -7 -12 -4 -16 14 -11 39 -96 64 -125 35z"/>
<path d="M3263 977 c-18 -5 -33 -15 -32 -21 0 -6 8 -61 17 -122 17 -110 17
-111 40 -103 18 7 22 14 17 29 -9 29 43 49 62 24 8 -12 20 -15 38 -10 25 6 26
8 12 29 -7 12 -33 54 -57 92 -58 93 -58 94 -97 82z m57 -151 c-26 -12 -26 -11
-34 49 l-6 50 30 -45 c29 -44 29 -45 10 -54z"/>
<path d="M3083 929 c-18 -5 -33 -15 -33 -22 0 -23 43 -202 50 -210 5 -5 17 -6
28 -3 18 6 19 11 10 48 -5 26 -5 45 1 51 17 17 40 -1 47 -38 7 -41 13 -46 41
-39 21 6 21 8 7 52 -7 26 -18 48 -24 50 -6 2 -8 17 -4 38 13 71 -34 99 -123
73z m73 -55 c4 -14 2 -30 -4 -36 -17 -17 -39 -2 -44 31 -4 27 -2 31 19 31 16
0 24 -7 29 -26z"/>
<path d="M2370 928 c0 -2 -9 -45 -19 -96 -13 -70 -15 -97 -7 -114 21 -42 116
-50 131 -11 12 33 42 192 37 198 -3 3 -13 5 -23 5 -20 0 -23 -7 -42 -115 -10
-60 -15 -70 -35 -73 -27 -4 -28 11 -7 121 8 43 15 81 15 83 0 4 -50 6 -50 2z"/>
<path d="M2531 803 c-17 -56 -34 -109 -37 -118 -5 -11 1 -15 19 -15 17 0 28 7
32 20 4 14 15 20 36 20 24 0 29 -4 29 -25 0 -21 5 -25 28 -25 l28 0 -14 119
-15 119 -37 4 -38 3 -31 -102z m71 -25 c4 -34 2 -38 -19 -38 -20 0 -23 3 -17
28 4 15 11 38 17 52 11 27 13 21 19 -42z"/>
<path d="M2901 901 c-12 -8 -12 -26 -1 -120 l13 -111 39 0 c21 0 54 7 73 14
32 14 35 19 35 55 0 29 -6 44 -21 54 -13 9 -16 17 -10 22 15 9 14 68 -1 83
-14 14 -106 16 -127 3z m73 -27 c21 -8 20 -50 -1 -58 -24 -10 -46 37 -26 57 8
8 8 8 27 1z m32 -118 c3 -14 3 -30 -1 -35 -9 -15 -45 -14 -45 2 0 6 -3 22 -6
35 -5 19 -2 22 20 22 19 0 27 -6 32 -24z"/>
<path d="M2686 773 c3 -65 8 -119 9 -121 1 -1 29 1 63 4 42 5 62 11 62 20 0
10 -13 14 -39 14 l-38 0 -8 100 c-6 98 -7 100 -32 100 l-24 0 7 -117z"/>
<path d="M3030 2976 c-59 -46 -140 -134 -239 -261 -35 -44 -66 -84 -70 -88 -4
-4 -32 32 -61 80 -79 130 -278 318 -306 290 -3 -3 6 -119 20 -259 39 -376 32
-344 74 -370 21 -12 94 -68 163 -124 l127 -102 38 39 c22 22 92 79 156 127
l117 86 5 51 c10 90 38 566 34 570 -2 3 -28 -15 -58 -39z"/>
<path d="M2195 2918 c26 -65 37 -193 34 -407 -3 -174 -2 -211 10 -211 27 0
220 -69 331 -119 62 -28 115 -49 118 -46 8 8 -113 79 -229 135 l-114 55 3 180
c1 99 -1 223 -5 275 l-8 95 -70 37 c-38 21 -73 38 -77 38 -4 0 -1 -15 7 -32z"/>
<path d="M3185 2912 l-70 -37 -8 -105 c-4 -58 -6 -181 -5 -275 l3 -170 -113
-55 c-114 -54 -238 -128 -230 -135 2 -2 71 25 153 60 83 35 186 74 230 87 l80
22 -3 202 c-4 204 5 327 31 403 8 22 12 41 8 41 -3 0 -37 -17 -76 -38z"/>
<path d="M3276 2739 c-11 -110 -7 -341 8 -398 10 -38 10 -54 2 -56 -6 -2 -59
-18 -119 -35 -202 -58 -381 -130 -364 -146 2 -3 56 11 118 30 147 44 279 66
397 66 l94 0 -7 28 c-24 94 -46 231 -51 322 -5 102 -3 118 31 228 7 21 5 22
-47 22 l-55 0 -7 -61z"/>
<path d="M2080 2748 c29 -67 34 -158 16 -293 -9 -66 -24 -151 -34 -190 l-19
-70 116 -1 c124 -1 278 -30 422 -79 85 -29 85 -29 70 -11 -25 30 -220 104
-429 161 -49 14 -61 21 -57 34 24 79 32 238 18 409 l-6 82 -58 0 -58 0 19 -42z"/>
<path d="M2643 513 c-18 -6 -17 -79 1 -86 20 -8 26 2 26 44 0 39 -7 49 -27 42z"/>
<path d="M2943 513 c-7 -2 -13 -18 -13 -34 0 -22 5 -29 19 -29 24 0 34 25 21
51 -6 10 -12 19 -13 18 -1 0 -8 -3 -14 -6z"/>
<path d="M2930 375 c0 -28 4 -35 19 -35 10 0 22 7 25 16 10 26 -3 54 -25 54
-15 0 -19 -7 -19 -35z"/>
<path d="M4253 549 c-31 -15 -48 -33 -64 -65 -51 -106 17 -214 134 -214 86 0
138 49 145 136 6 68 -23 118 -82 145 -53 24 -82 24 -133 -2z m111 -23 c89 -37
102 -155 24 -210 -28 -20 -90 -21 -127 -1 -31 15 -61 69 -61 107 0 35 37 87
73 103 41 18 50 18 91 1z"/>
<path d="M4270 420 c0 -47 4 -80 10 -80 6 0 10 14 10 31 0 27 3 30 28 27 21
-2 28 -9 30 -30 7 -56 20 -26 20 42 -1 78 -10 90 -67 90 l-31 0 0 -80z m75 30
c0 -9 -11 -16 -27 -18 -23 -3 -28 1 -28 18 0 17 5 21 28 18 16 -2 27 -9 27
-18z"/>
</g>
</svg>
